<?xml version="1.0" encoding="UTF-8" standalone="no"?><!DOCTYPE svg PUBLIC "-//W3C//DTD SVG 1.1//EN" "http://www.w3.org/Graphics/SVG/1.1/DTD/svg11.dtd"><svg width="100%" height="100%" viewBox="0 0 371 371" version="1.1" xmlns="http://www.w3.org/2000/svg" xmlns:xlink="http://www.w3.org/1999/xlink" xml:space="preserve" style="fill-rule:evenodd;clip-rule:evenodd;stroke-linejoin:round;stroke-miterlimit:1.41421;"><g id="Ebene1"><rect x="0" y="0" width="370.56" height="370.56" style="fill:url(#_Linear1);"/></g><g id="Ebene-1"><g><path d="M183.473,328.098c5.749,-0.307 10.347,-0.375 14.905,-0.844c4.553,-0.468 9.095,-1.189 13.587,-2.077c4.334,-0.856 8.599,-2.065 12.893,-3.123c0.985,-0.243 1.254,-0.804 0.904,-1.784c-0.497,-1.388 -0.88,-2.817 -1.334,-4.222c-1.914,-5.92 -3.839,-11.836 -5.755,-17.755c-0.503,-1.557 -0.336,-1.949 1.187,-2.565c1.367,-0.554 2.744,-1.086 4.141,-1.555c1.537,-0.516 2.155,-0.216 2.647,1.291c2.314,7.091 4.619,14.187 6.896,21.291c0.662,2.066 0.696,2.126 2.721,1.418c0.189,-0.066 0.381,-0.122 0.562,-0.206c5.422,-2.519 10.934,-4.864 16.244,-7.6c9.339,-4.815 17.742,-11.041 25.63,-17.946c3.059,-2.679 5.908,-5.6 8.843,-8.42c0.89,-0.857 0.862,-1.362 -0.066,-2.169c-1.294,-1.123 -2.605,-2.225 -3.88,-3.369c-3.149,-2.823 -6.286,-5.659 -9.416,-8.502c-1.359,-1.233 -2.692,-2.495 -4.035,-3.746c-0.644,-0.6 -0.839,-1.296 -0.24,-2.009c1.23,-1.464 2.5,-2.897 3.765,-4.333c0.649,-0.738 1.291,-0.587 1.96,0.018c5.704,5.169 11.422,10.321 17.121,15.496c1.225,1.113 1.605,1.142 2.544,-0.177c3.353,-4.71 6.959,-9.271 9.954,-14.199c3.473,-5.715 6.639,-11.646 9.509,-17.687c3.508,-7.388 6.076,-15.16 8.093,-23.099c0.334,-1.317 0.167,-1.668 -1.125,-1.941c-5.889,-1.244 -11.78,-2.478 -17.67,-3.722c-1.638,-0.347 -3.278,-0.688 -4.904,-1.087c-1.309,-0.32 -1.612,-0.884 -1.325,-2.187c0.326,-1.48 0.616,-2.968 0.967,-4.441c0.392,-1.652 0.765,-1.864 2.458,-1.501c4.366,0.934 8.732,1.87 13.096,2.81c2.962,0.638 5.924,1.276 8.882,1.932c1.274,0.284 1.804,0.021 1.939,-1.029c0.295,-2.293 0.646,-4.58 0.871,-6.88c0.391,-4.008 0.897,-8.019 1.007,-12.038c0.201,-7.337 -0.09,-14.658 -1.054,-21.962c-0.895,-6.777 -2.223,-13.445 -4.046,-20.023c-0.541,-1.952 -0.594,-1.993 -2.578,-1.361c-6.879,2.191 -13.749,4.406 -20.616,6.632c-1.809,0.587 -2.338,0.364 -2.942,-1.445c-0.441,-1.324 -0.871,-2.652 -1.27,-3.99c-0.507,-1.703 -0.254,-2.203 1.448,-2.769c3.179,-1.056 6.368,-2.082 9.556,-3.114c3.908,-1.266 7.812,-2.545 11.731,-3.779c0.956,-0.301 1.322,-0.766 0.946,-1.76c-0.354,-0.931 -0.53,-1.937 -0.948,-2.834c-2.798,-5.995 -5.505,-12.04 -8.503,-17.935c-3.705,-7.282 -8.441,-13.918 -13.698,-20.153c-3.16,-3.749 -6.571,-7.285 -9.861,-10.925c-0.937,-1.036 -1.199,-1.089 -2.185,-0.032c-2.148,2.306 -4.262,4.643 -6.374,6.982c-2.995,3.317 -5.984,6.642 -8.959,9.977c-0.747,0.835 -1.49,0.986 -2.364,0.206c-1.071,-0.956 -2.161,-1.891 -3.241,-2.837c-1.626,-1.423 -1.645,-1.929 -0.21,-3.508c4.934,-5.433 9.86,-10.874 14.785,-16.315c1.059,-1.17 1.069,-1.623 -0.199,-2.618c-3.359,-2.634 -6.662,-5.353 -10.163,-7.783c-7.818,-5.427 -16.093,-10.061 -24.847,-13.83c-6.417,-2.763 -12.957,-5.161 -19.719,-6.934c-0.856,-0.224 -1.396,-0.004 -1.584,0.918c-0.247,1.21 -0.52,2.415 -0.789,3.621c-0.736,3.307 -1.496,6.608 -2.205,9.919c-0.651,3.041 -1.214,6.101 -1.887,9.137c-0.373,1.68 -0.905,1.953 -2.561,1.561c-1.475,-0.348 -2.943,-0.72 -4.42,-1.062c-1.272,-0.296 -1.552,-0.647 -1.304,-1.916c0.466,-2.384 0.96,-4.763 1.47,-7.138c1.143,-5.337 2.288,-10.673 3.464,-16.002c0.232,-1.048 -0.117,-1.524 -1.162,-1.566c-0.276,-0.011 -0.554,-0.065 -0.829,-0.116c-6.759,-1.253 -13.584,-1.999 -20.447,-2.221c-8.948,-0.292 -17.884,0.051 -26.712,1.675c-4.817,0.886 -9.586,2.033 -14.377,3.062c-1.106,0.238 -1.388,0.843 -1.017,1.927c0.953,2.793 1.843,5.609 2.745,8.42c1.428,4.443 2.867,8.882 4.257,13.338c0.584,1.872 0.371,2.224 -1.434,2.827c-1.285,0.429 -2.584,0.819 -3.879,1.221c-1.593,0.494 -2.143,0.238 -2.676,-1.4c-2.247,-6.903 -4.49,-13.806 -6.688,-20.724c-0.903,-2.843 -0.882,-2.942 -3.686,-1.784c-4.825,1.99 -9.642,4.008 -14.391,6.169c-5.564,2.534 -10.816,5.648 -15.887,9.065c-7.665,5.167 -14.754,11.04 -21.403,17.455c-1.162,1.122 -1.215,1.321 0.014,2.461c2.926,2.712 5.879,5.395 8.836,8.072c2.87,2.596 5.776,5.152 8.633,7.762c1.044,0.954 1.015,1.514 0.081,2.527c-1.002,1.086 -1.99,2.185 -3.011,3.252c-1.318,1.379 -1.778,1.362 -3.163,0.09c-2.704,-2.483 -5.428,-4.944 -8.145,-7.414c-3.04,-2.763 -6.084,-5.521 -9.12,-8.289c-0.908,-0.828 -1.409,-0.77 -2.354,0.381c-4.666,5.68 -9.068,11.551 -12.855,17.862c-6.305,10.512 -11.388,21.574 -14.931,33.322c-0.506,1.677 -0.942,3.375 -1.357,5.077c-0.164,0.667 -0.054,1.286 0.802,1.46c1.054,0.215 2.1,0.461 3.152,0.682c6.554,1.382 13.112,2.743 19.661,4.151c2.62,0.563 2.501,0.719 1.949,3.29c-1.077,5.021 -2.153,10.065 -2.785,15.154c-0.742,5.979 -0.881,12.025 -0.301,18.043c0.425,4.4 0.919,8.802 1.631,13.163c0.563,3.455 1.488,6.852 2.283,10.268c0.249,1.069 -0.169,1.692 -1.144,2.027c-3.168,1.084 -6.33,2.184 -9.506,3.241c-3.444,1.146 -6.897,2.268 -10.357,3.366c-0.902,0.285 -1.077,0.794 -0.794,1.633c0.494,1.475 0.927,2.97 1.419,4.446c0.453,1.364 0.737,1.499 2.116,1.054c5.81,-1.87 11.62,-3.737 17.422,-5.627c3.659,-1.193 3.692,-1.175 5.078,2.455c4.072,10.666 9.541,20.558 16.834,29.354c3.25,3.919 6.851,7.556 10.407,11.21c1.578,1.621 3.442,2.965 5.179,4.433c0.741,0.626 1.246,1.291 0.426,2.214c-2.357,2.654 -4.694,5.326 -7.076,7.957c-3.026,3.341 -6.091,6.645 -9.133,9.972c-0.863,0.945 -0.848,1.33 0.18,2.148c1.999,1.589 3.991,3.191 6.051,4.7c8.109,5.94 16.793,10.887 25.934,15.065c7.901,3.611 16.088,6.355 24.513,8.42c1.282,0.315 1.665,0.112 1.963,-1.178c0.439,-1.901 0.791,-3.821 1.195,-5.73c1.233,-5.811 2.478,-11.619 3.704,-17.43c0.212,-1.005 0.803,-1.481 1.792,-1.291c1.801,0.345 3.594,0.733 5.374,1.167c0.909,0.223 1.3,0.873 1.094,1.822c-0.76,3.504 -1.517,7.008 -2.282,10.511c-0.919,4.206 -1.857,8.409 -2.759,12.62c-0.299,1.399 -0.068,1.669 1.372,1.861c1.421,0.189 2.839,0.427 4.267,0.55c5.991,0.515 11.986,0.996 16.848,1.397m-4.902,-292.871c82.008,-3.34 148.235,57.572 156.068,134.409c4.212,41.313 -6.874,78.446 -33.085,110.618c-26.978,33.113 -62.322,51.463 -104.756,54.744c-84.914,6.567 -155.151,-57.223 -161.306,-138.245c-6.388,-84.075 57.332,-157.338 143.079,-161.526" style="fill:#fff;fill-rule:nonzero;"/><path d="M225.277,184.961c-0.08,-21.786 -17.85,-39.044 -39.137,-39.056c-22.224,-0.013 -39.747,17.54 -39.474,40.043c0.256,21.171 17.389,38.647 39.501,38.597c21.911,-0.05 39.298,-17.931 39.11,-39.584m-110.953,-0.362c-0.178,-6.108 0.432,-11.609 1.543,-17.06c0.314,-1.54 0.668,-1.755 2.268,-1.41c7.099,1.527 14.197,3.064 21.292,4.613c1.699,0.371 1.671,0.358 2.294,-1.253c1.659,-4.291 3.575,-8.452 6.507,-12.058c0.58,-0.714 0.413,-1.214 -0.258,-1.814c-5.439,-4.868 -10.863,-9.755 -16.255,-14.676c-1.541,-1.405 -1.464,-1.443 -0.002,-2.988c1.013,-1.071 1.971,-2.198 2.924,-3.323c0.692,-0.817 1.378,-0.822 2.148,-0.126c2.22,2.005 4.455,3.994 6.67,6.004c3.398,3.083 6.787,6.176 10.171,9.274c0.584,0.535 1.038,0.503 1.636,-0.047c3.441,-3.164 7.391,-5.561 11.646,-7.449c1.023,-0.453 1.255,-0.925 0.899,-2.005c-2.245,-6.825 -4.425,-13.673 -6.62,-20.516c-0.437,-1.362 -0.278,-1.695 1.05,-2.147c1.322,-0.451 2.642,-0.924 3.992,-1.272c2.079,-0.535 2.48,-0.255 3.128,1.774c2.08,6.502 4.17,13 6.263,19.497c0.526,1.632 0.556,1.622 2.19,1.331c4.35,-0.774 8.728,-0.975 13.116,-0.458c1.188,0.14 1.588,-0.207 1.821,-1.369c0.982,-4.889 2.081,-9.756 3.131,-14.633c0.444,-2.068 0.867,-4.141 1.315,-6.208c0.275,-1.264 0.609,-1.461 1.832,-1.173c1.671,0.396 3.342,0.784 5.015,1.167c1.058,0.242 1.409,0.816 1.166,1.923c-1.533,6.974 -3.006,13.962 -4.538,20.935c-0.212,0.966 0.003,1.52 0.954,1.831c3.78,1.239 7.285,3.034 10.58,5.251c0.165,0.112 0.36,0.187 0.508,0.317c2.104,1.846 1.99,1.315 3.662,-0.506c4.453,-4.849 8.826,-9.772 13.228,-14.667c0.954,-1.062 1.297,-1.137 2.372,-0.192c1.347,1.185 2.629,2.445 3.925,3.687c0.685,0.656 0.416,1.321 -0.097,1.906c-1.025,1.171 -2.084,2.312 -3.131,3.463c-3.652,4.015 -7.288,8.043 -10.971,12.03c-0.753,0.815 -0.906,1.392 -0.088,2.304c2.978,3.324 5.247,7.123 7.143,11.147c0.407,0.864 0.875,1.039 1.785,0.74c6.602,-2.16 13.219,-4.274 19.833,-6.394c1.485,-0.477 1.782,-0.331 2.28,1.169c0.528,1.591 1.035,3.189 1.514,4.796c0.367,1.228 0.105,1.674 -1.097,2.06c-6.728,2.159 -13.452,4.328 -20.187,6.467c-0.778,0.247 -0.958,0.643 -0.822,1.421c0.783,4.495 1.222,9.016 0.713,13.579c-0.1,0.901 0.25,1.315 1.114,1.495c6.837,1.421 13.667,2.867 20.502,4.299c1.391,0.291 1.613,0.569 1.344,1.957c-0.326,1.684 -0.717,3.356 -1.039,5.041c-0.204,1.074 -0.815,1.353 -1.82,1.132c-4.598,-1.01 -9.2,-2.003 -13.8,-3.004c-2.261,-0.492 -4.525,-0.966 -6.777,-1.498c-0.983,-0.233 -1.45,0.088 -1.743,1.051c-1.327,4.347 -3.354,8.359 -6.048,12.015c-0.692,0.941 -0.349,1.461 0.368,2.105c5.166,4.639 10.317,9.296 15.458,13.962c1.247,1.132 1.238,1.51 0.157,2.769c-0.91,1.06 -1.809,2.13 -2.722,3.188c-1.18,1.369 -1.501,1.426 -2.812,0.245c-3.704,-3.339 -7.379,-6.712 -11.068,-10.067c-1.565,-1.423 -3.15,-2.823 -4.702,-4.259c-0.622,-0.576 -1.123,-0.401 -1.663,0.094c-3.437,3.162 -7.336,5.635 -11.534,7.642c-0.806,0.385 -1.027,0.846 -0.745,1.702c1.218,3.718 2.385,7.452 3.582,11.177c1.002,3.116 2.022,6.227 3.028,9.342c0.505,1.569 0.331,1.925 -1.272,2.463c-1.438,0.482 -2.889,0.925 -4.338,1.377c-1.383,0.431 -1.742,0.27 -2.207,-1.156c-1.423,-4.365 -2.817,-8.739 -4.221,-13.111c-0.805,-2.508 -1.638,-5.008 -2.393,-7.533c-0.249,-0.829 -0.612,-1.057 -1.465,-0.877c-4.637,0.972 -9.325,1.3 -14.05,0.879c-0.968,-0.085 -1.237,0.374 -1.409,1.19c-1.133,5.386 -2.299,10.765 -3.451,16.147c-0.401,1.874 -0.767,3.755 -1.195,5.621c-0.291,1.276 -0.687,1.477 -1.978,1.188c-1.596,-0.356 -3.191,-0.716 -4.794,-1.042c-1.298,-0.266 -1.559,-0.567 -1.282,-1.889c0.714,-3.397 1.476,-6.785 2.209,-10.178c0.826,-3.822 1.624,-7.651 2.473,-11.467c0.205,-0.919 -0.022,-1.367 -0.964,-1.658c-4.535,-1.405 -8.731,-3.516 -12.569,-6.307c-0.756,-0.549 -1.249,-0.481 -1.828,0.172c-2.303,2.598 -4.615,5.189 -6.943,7.763c-2.757,3.049 -5.543,6.069 -8.301,9.116c-0.771,0.852 -1.446,0.749 -2.237,0.008c-6.846,-6.417 -12.542,-13.707 -16.831,-22.07c-0.946,-1.846 -1.913,-3.68 -2.793,-5.556c-0.789,-1.683 -0.567,-2.147 1.186,-2.715c6.912,-2.238 13.83,-4.457 20.745,-6.685c0.343,-0.111 0.679,-0.239 1.024,-0.34c0.665,-0.195 0.885,-0.579 0.658,-1.264c-0.629,-1.895 -1.235,-3.798 -1.832,-5.702c-0.23,-0.735 -0.679,-0.733 -1.307,-0.526c-5.765,1.891 -11.536,3.765 -17.308,5.638c-1.595,0.518 -3.191,1.032 -4.797,1.511c-1.318,0.393 -1.724,0.148 -2.037,-1.178c-1.375,-5.814 -2.057,-11.71 -2.021,-17.149" style="fill:#fff;fill-rule:nonzero;"/><path d="M212.585,86.329c-0.01,-1.979 -1.532,-3.608 -3.392,-3.629c-2.004,-0.023 -3.697,1.664 -3.662,3.645c0.035,1.97 1.651,3.57 3.606,3.572c1.819,0.001 3.458,-1.705 3.448,-3.588m-6.709,19.651c2.889,-0.018 5.293,-2.412 5.255,-5.233c-0.037,-2.796 -2.405,-5.082 -5.29,-5.108c-2.705,-0.025 -5.115,2.462 -5.107,5.27c0.009,2.737 2.393,5.088 5.142,5.071m-11.246,-5.083c-0.129,-4.29 1.69,-7.332 5.418,-9.185c1.028,-0.512 1.117,-1.133 0.595,-2.005c-2.919,-4.881 1.014,-12.507 7.821,-12.92c6.653,-0.403 11.737,6.147 9.457,12.403c-0.517,1.418 -1.735,2.624 -2.787,3.788c-0.645,0.713 -0.785,1.198 -0.127,1.914c3.752,4.083 2.829,11.323 -2.45,14.967c-4.633,3.2 -10.936,2.616 -14.874,-1.517c-1.953,-2.049 -3.271,-4.539 -3.053,-7.445" style="fill:#fff;fill-rule:nonzero;"/><path d="M127.17,124.719c0.053,-0.077 0.105,-0.154 0.158,-0.23c0.465,-0.099 0.945,-0.154 1.393,-0.305c4.049,-1.358 5.031,-6.24 1.802,-9.257c-3.059,-2.858 -6.18,-5.651 -9.347,-8.387c-1.39,-1.202 -3.06,-1.943 -4.975,-1.48c-4.038,0.973 -5.409,5.732 -2.554,8.922c0.9,1.005 1.96,1.872 2.97,2.773c2.321,2.071 4.595,4.201 7.016,6.148c1.012,0.813 2.348,1.223 3.537,1.816m-0.833,5.579c-2.553,0.179 -4.722,-0.978 -6.627,-2.638c-3.367,-2.934 -6.74,-5.868 -9.965,-8.954c-6.329,-6.055 -3.699,-14.612 2.357,-18.212c4.273,-2.542 9.666,-1.838 13.643,1.913c2.929,2.761 6.007,5.363 8.95,8.111c5.624,5.252 4.838,13.206 -1.29,17.674c-2.118,1.543 -4.054,2.106 -7.068,2.106" style="fill:#fff;fill-rule:nonzero;"/><path d="M170.316,266.203c-0.897,-0.216 -1.79,-0.454 -2.693,-0.647c-2.575,-0.55 -5.155,-1.074 -7.731,-1.622c-1.213,-0.258 -1.558,-0.734 -1.357,-1.945c0.156,-0.944 0.412,-1.871 0.584,-2.813c0.181,-0.995 0.782,-1.348 1.72,-1.178c1.02,0.184 2.034,0.41 3.048,0.629c5.031,1.085 10.066,2.158 15.091,3.271c1.864,0.413 1.799,0.677 1.693,2.573c-0.17,3.025 -2.016,4.51 -4.399,5.843c-3.827,2.142 -7.586,4.412 -11.306,6.737c-2.007,1.256 -3.83,2.755 -4.321,5.317c-0.497,2.598 0.762,4.799 3.283,5.604c2.254,0.719 4.91,-0.485 5.91,-2.678c1.092,-2.395 1.092,-2.395 3.701,-1.871c0.079,0.016 0.157,0.031 0.236,0.046c3.044,0.604 3.346,1.069 2.088,3.88c-2.091,4.669 -6.294,7.435 -11.863,6.812c-4.75,-0.531 -8.852,-4.525 -9.542,-9.259c-0.725,-4.983 1.219,-8.879 5.22,-11.676c2.87,-2.005 5.981,-3.663 8.98,-5.484c0.588,-0.356 1.152,-0.752 1.726,-1.13c-0.022,-0.136 -0.045,-0.273 -0.068,-0.409" style="fill:#fff;fill-rule:nonzero;"/><path d="M104.525,202.875c-0.106,-0.483 -0.174,-0.979 -0.325,-1.448c-0.922,-2.89 -1.871,-5.771 -2.796,-8.659c-0.445,-1.393 -0.264,-1.734 1.136,-2.218c0.792,-0.275 1.584,-0.551 2.391,-0.774c1.298,-0.358 1.743,-0.137 2.169,1.146c0.908,2.726 1.78,5.465 2.662,8.2c0.991,3.076 2.004,6.147 2.955,9.236c0.521,1.692 0.283,1.905 -1.296,2.591c-2.266,0.984 -4.213,1.027 -6.49,-0.395c-4.187,-2.615 -8.614,-4.849 -12.986,-7.156c-1.932,-1.02 -3.949,-1.626 -6.199,-0.716c-2.172,0.877 -3.36,2.366 -3.29,4.574c0.069,2.183 1.544,4.102 3.714,4.583c0.862,0.191 1.824,0.136 2.705,-0.014c1.175,-0.2 1.836,0.175 2.149,1.304c0.279,0.999 0.603,1.985 0.913,2.976c0.299,0.959 -0.041,1.551 -1.015,1.779c-4.742,1.11 -9.535,-0.05 -12.547,-4.507c-2.876,-4.259 -2.575,-9.519 0.702,-13.441c2.95,-3.532 7.763,-4.884 12.257,-3.546c3.614,1.078 6.67,3.211 9.889,5.043c0.99,0.564 1.978,1.131 2.966,1.696c0.112,-0.085 0.224,-0.169 0.336,-0.254" style="fill:#fff;fill-rule:nonzero;"/><path d="M259.333,202.861c0.002,-6.252 4.971,-11.446 11.264,-11.773c1.522,-0.079 1.984,0.438 1.686,1.896c-0.088,0.43 -0.197,0.857 -0.266,1.29c-0.28,1.778 -0.807,2.963 -3.001,3.457c-4.064,0.915 -5.086,6.203 -1.916,9.064c1.713,1.546 3.759,2.011 6.023,1.262c2.134,-0.705 3.523,-2.124 3.767,-4.345c0.116,-1.049 -0.137,-2.231 -0.546,-3.219c-0.51,-1.237 -0.455,-2.255 0.198,-3.395c1.845,-3.225 1.196,-3.345 5.021,-1.736c3.862,1.626 7.746,3.205 11.616,4.812c1.411,0.586 1.66,1.013 1.351,2.484c-0.823,3.907 -1.667,7.808 -2.522,11.707c-0.279,1.271 -0.7,1.523 -1.951,1.267c-0.899,-0.184 -1.793,-0.396 -2.694,-0.57c-1.091,-0.21 -1.433,-0.795 -1.173,-1.894c0.581,-2.448 1.029,-4.926 1.639,-7.364c0.297,-1.186 -0.092,-1.834 -1.157,-2.225c-0.899,-0.33 -1.794,-0.672 -2.69,-1.008c-1.042,-0.391 -1.172,-0.235 -1.324,0.894c-0.224,1.645 -0.291,3.395 -0.93,4.884c-2.094,4.877 -8.137,7.393 -13.664,5.904c-5.145,-1.386 -8.733,-6.069 -8.731,-11.392" style="fill:#fff;fill-rule:nonzero;"/><path d="M269.172,163.976c3.364,0.016 6.165,-2.657 6.175,-5.892c0.008,-2.984 -2.639,-5.453 -5.86,-5.465c-2.894,-0.011 -5.978,3.016 -5.953,5.843c0.025,3.011 2.57,5.499 5.638,5.514m1.096,-17.754c2.56,0.571 5.139,1.065 7.673,1.729c3.974,1.043 7.914,2.218 11.878,3.298c1.103,0.3 1.82,0.876 2.132,2.009c0.327,1.192 0.796,2.344 1.133,3.533c0.382,1.342 -0.017,1.729 -1.372,1.363c-3.12,-0.843 -6.232,-1.713 -9.351,-2.564c-1.467,-0.402 -1.734,-0.202 -1.31,1.117c1.508,4.681 -1.614,10.481 -6.45,12.33c-4.955,1.894 -9.592,1.407 -13.503,-2.48c-5.45,-5.414 -4.113,-14.688 2.583,-18.45c2.043,-1.147 4.189,-1.73 6.531,-1.598c0.019,-0.096 0.037,-0.191 0.056,-0.287" style="fill:#fff;fill-rule:nonzero;"/><path d="M163.701,90.354c0.046,-3.411 -2.564,-6.181 -5.912,-6.277c-2.831,-0.081 -5.419,2.624 -5.462,5.709c-0.045,3.282 2.535,6.097 5.617,6.129c3.308,0.035 5.713,-2.289 5.757,-5.561m-5.915,-12.21c5.96,-0.075 11.466,4.866 12.066,10.727c0.329,3.22 -0.531,6.166 -1.329,9.162c-1.069,4.01 -2.227,7.997 -3.263,12.016c-0.371,1.435 -1.108,2.318 -2.569,2.64c-0.893,0.198 -1.756,0.533 -2.64,0.781c-1.418,0.397 -2.01,-0.136 -1.634,-1.598c0.704,-2.744 1.48,-5.47 2.255,-8.195c0.623,-2.195 0.636,-2.225 -1.615,-1.861c-6.967,1.129 -12.484,-4.659 -12.63,-10.911c-0.125,-5.391 2.146,-9.234 6.918,-11.553c1.356,-0.659 2.954,-0.82 4.441,-1.208" style="fill:#fff;fill-rule:nonzero;"/><path d="M261.413,248.828c0.115,-0.556 0.205,-0.723 0.168,-0.854c-1.079,-3.875 -2.145,-7.753 -3.283,-11.61c-0.276,-0.935 -0.916,-0.71 -1.444,-0.14c-1.057,1.14 -2.105,2.288 -3.142,3.446c-0.966,1.076 -0.912,1.595 0.192,2.591c1.656,1.495 3.292,3.013 4.959,4.494c0.752,0.668 1.56,1.273 2.55,2.073m7.407,7.976c-0.157,0.341 -0.326,0.826 -0.595,1.248c-0.209,0.33 -0.563,0.564 -0.815,0.872c-1.85,2.261 -2.085,1.869 -3.989,0.12c-4.608,-4.235 -9.309,-8.369 -13.951,-12.567c-0.703,-0.635 -1.213,-0.501 -1.84,0.091c-1.585,1.494 -1.808,1.473 -3.399,-0.046c-0.116,-0.111 -0.227,-0.225 -0.34,-0.337c-1.783,-1.756 -1.748,-1.734 -0.447,-3.875c0.195,-0.321 0.039,-1.064 -0.221,-1.409c-0.499,-0.659 -1.187,-1.175 -1.802,-1.743c-0.694,-0.64 -0.68,-1.31 -0.078,-1.99c0.793,-0.896 1.583,-1.793 2.407,-2.66c0.523,-0.55 1.125,-0.565 1.697,-0.049c0.622,0.56 1.225,1.142 1.841,1.709c0.641,0.59 1.238,0.607 1.854,-0.08c2.369,-2.64 4.757,-5.265 7.141,-7.894c0.267,-0.294 0.552,-0.575 0.819,-0.871c0.708,-0.783 1.296,-0.605 2.161,-0.057c2.788,1.762 3.189,4.696 3.931,7.477c1.109,4.159 2.187,8.328 3.277,12.493c0.696,2.659 1.394,5.318 2.077,7.98c0.118,0.461 0.164,0.941 0.272,1.588" style="fill:#fff;fill-rule:nonzero;"/><path d="M225.874,281.641c0.001,4.514 -2.988,8.074 -7.393,8.81c-4.533,0.758 -8.815,-1.734 -10.296,-5.92c-0.683,-1.93 -0.843,-3.81 0.093,-5.687c0.346,-0.694 0.217,-1.112 -0.562,-1.343c-4.552,-1.353 -6.562,-4.756 -7.018,-9.163c-0.461,-4.473 1.611,-7.873 5.191,-10.377c5.607,-3.923 13.58,-1.787 16.461,3.824c0.661,1.288 0.541,1.638 -0.803,2.133c-0.411,0.153 -0.85,0.242 -1.243,0.431c-1.795,0.857 -3.171,0.847 -4.634,-0.958c-1.712,-2.11 -5.594,-1.733 -7.389,0.35c-1.991,2.31 -1.736,5.912 0.546,7.721c1.673,1.327 3.536,1.481 5.551,0.992c1.836,-0.445 1.984,-0.326 2.589,1.452c0.104,0.301 0.206,0.604 0.306,0.906c0.774,2.338 0.774,2.338 -1.375,3.542c-2.09,1.17 -2.672,3.416 -1.293,5.121c0.65,0.804 1.432,1.373 2.584,1.133c1.235,-0.26 2.205,-0.801 2.347,-2.176c0.152,-1.477 0.925,-2.297 2.363,-2.593c0.621,-0.129 1.208,-0.413 1.821,-0.588c1.522,-0.439 2.088,-0.024 2.152,1.552c0.012,0.279 0.002,0.559 0.002,0.838" style="fill:#fff;fill-rule:nonzero;"/><path d="M237.091,127.406c-0.279,-0.043 -0.533,-0.007 -0.663,-0.116c-1.415,-1.204 -2.891,-2.352 -4.172,-3.686c-0.544,-0.566 0.165,-1.042 0.753,-1.297c4.28,-1.861 8.563,-3.716 12.84,-5.585c4.056,-1.774 8.11,-3.555 12.158,-5.348c1.104,-0.49 1.193,-0.914 0.304,-1.74c-2.162,-2.008 -4.362,-3.975 -6.549,-5.957c-0.325,-0.294 -0.673,-0.564 -0.984,-0.873c-1.074,-1.062 -1.073,-1.484 -0.041,-2.596c0.543,-0.584 1.078,-1.175 1.608,-1.771c0.86,-0.963 1.381,-1.035 2.433,-0.12c1.894,1.649 3.747,3.346 5.602,5.041c2.267,2.071 4.489,4.193 6.791,6.223c0.903,0.796 0.86,1.414 0.182,2.327c-1.725,2.32 -4.022,3.774 -6.627,4.93c-7.548,3.351 -15.054,6.796 -22.578,10.198c-0.358,0.162 -0.744,0.263 -1.057,0.37" style="fill:#fff;fill-rule:nonzero;"/><path d="M109.557,170.868c-0.232,1.077 -0.484,2.328 -0.773,3.573c-0.203,0.873 -0.779,1.104 -1.631,0.92c-6.748,-1.457 -13.499,-2.898 -20.249,-4.344c-1.444,-0.309 -2.891,-0.602 -4.328,-0.936c-1.016,-0.236 -1.563,0.079 -1.8,1.143c-0.601,2.712 -0.643,2.713 -3.338,2.137c-3.156,-0.675 -3.17,-0.678 -2.52,-3.798c0.391,-1.875 0.828,-3.741 1.257,-5.607c0.33,-1.431 0.623,-1.639 2.099,-1.327c5.856,1.24 11.707,2.504 17.56,3.762c4.096,0.88 8.188,1.776 12.287,2.641c0.938,0.197 1.574,0.579 1.436,1.836" style="fill:#fff;fill-rule:nonzero;"/><path d="M124.46,137.131c-0.132,0.362 -0.153,0.587 -0.274,0.726c-0.968,1.111 -1.89,2.276 -2.98,3.257c-0.284,0.256 -1.286,0.13 -1.649,-0.18c-2.518,-2.15 -4.958,-4.389 -7.412,-6.613c-3.785,-3.428 -7.574,-6.854 -11.332,-10.312c-0.794,-0.73 -1.362,-0.556 -2.016,0.147c-1.897,2.039 -1.944,2.07 -3.979,0.217c-2.312,-2.104 -2.506,-2.224 -0.408,-4.27c1.453,-1.418 2.751,-2.994 4.105,-4.513c0.743,-0.833 1.466,-0.796 2.267,-0.073c3.79,3.423 7.598,6.826 11.386,10.25c3.789,3.425 7.565,6.863 11.338,10.305c0.363,0.332 0.664,0.733 0.954,1.059" style="fill:#fff;fill-rule:nonzero;"/><path d="M117.72,274.31c-0.458,-0.241 -0.778,-0.337 -1.001,-0.538c-1.927,-1.732 -3.828,-3.491 -5.754,-5.225c-0.836,-0.752 -0.775,-1.383 -0.021,-2.212c4.904,-5.4 9.759,-10.843 14.643,-16.26c1.975,-2.19 3.979,-4.355 5.984,-6.518c0.927,-1.001 1.408,-1.01 2.413,-0.113c0.713,0.637 1.422,1.279 2.128,1.924c0.932,0.85 1,1.375 0.159,2.329c-2.609,2.959 -5.231,5.909 -7.878,8.834c-2.942,3.253 -5.905,6.484 -8.883,9.702c-0.733,0.792 -0.734,1.509 0.118,2.115c2.542,1.809 1.587,2.518 -0.043,4.185c-0.597,0.611 -1.237,1.181 -1.865,1.777" style="fill:#fff;fill-rule:nonzero;"/><path d="M80.643,147.381c3.148,0.662 5.92,1.235 8.689,1.828c7.252,1.555 14.503,3.118 21.756,4.68c1.687,0.363 1.892,0.679 1.537,2.393c-0.162,0.781 -0.329,1.562 -0.52,2.336c-0.357,1.454 -0.751,1.74 -2.199,1.438c-4.333,-0.906 -8.66,-1.844 -12.986,-2.777c-3.665,-0.791 -7.322,-1.608 -10.989,-2.388c-1.427,-0.303 -1.672,-0.118 -1.982,1.285c-0.086,0.39 -0.158,0.782 -0.249,1.17c-0.213,0.9 -0.767,1.258 -1.681,1.058c-1.012,-0.221 -2.028,-0.425 -3.04,-0.645c-0.892,-0.194 -1.298,-0.713 -1.097,-1.645c0.548,-2.534 1.039,-5.081 1.674,-7.591c0.126,-0.496 0.8,-0.855 1.087,-1.142" style="fill:#fff;fill-rule:nonzero;"/><path d="M86.132,234.326c-0.309,-0.321 -0.832,-0.627 -0.984,-1.062c-0.857,-2.447 -1.624,-4.926 -2.42,-7.394c-0.341,-1.057 0.312,-1.435 1.152,-1.707c3.72,-1.207 7.433,-2.434 11.156,-3.632c5.773,-1.857 11.553,-3.693 17.329,-5.546c2.022,-0.649 2.261,-0.536 2.937,1.479c0.216,0.643 0.444,1.283 0.645,1.93c0.417,1.338 0.214,1.803 -1.136,2.256c-2.383,0.798 -4.788,1.533 -7.181,2.303c-5.431,1.751 -10.863,3.5 -16.29,5.264c-1.333,0.434 -1.423,0.656 -0.998,2.017c0.083,0.267 0.177,0.531 0.261,0.797c0.479,1.523 0.293,1.854 -1.266,2.316c-0.992,0.293 -1.981,0.604 -3.205,0.979" style="fill:#fff;fill-rule:nonzero;"/></g></g><defs><linearGradient id="_Linear1" x1="0" y1="0" x2="1" y2="0" gradientUnits="userSpaceOnUse" gradientTransform="matrix(2.26903e-14,370.56,-370.56,2.26903e-14,115.2,0)"><stop offset="0" style="stop-color:#059719;stop-opacity:1"/><stop offset="0.46" style="stop-color:#058314;stop-opacity:1"/><stop offset="1" style="stop-color:#045209;stop-opacity:1"/></linearGradient></defs></svg>