<?xml version="1.0" encoding="UTF-8" standalone="no"?>
<!DOCTYPE svg PUBLIC "-//W3C//DTD SVG 1.1//EN" "http://www.w3.org/Graphics/SVG/1.1/DTD/svg11.dtd">
<svg width="100%" height="100%" viewBox="0 0 2048 2048" version="1.1" xmlns="http://www.w3.org/2000/svg" xmlns:xlink="http://www.w3.org/1999/xlink" xml:space="preserve" style="fill-rule:evenodd;clip-rule:evenodd;stroke-linejoin:round;stroke-miterlimit:1.41421;">
    <g transform="matrix(4.81911,0,0,4.74359,-926.672,-4852.61)">
        <g transform="matrix(0.83,0,7.75082e-18,1,40.5905,0)">
            <path d="M462.831,1340.81L462.831,1144.1L461.679,1144.1L371.535,1340.81L366.351,1340.81L276.495,1144.1L275.631,1144.1L275.631,1340.81L269.295,1340.81L269.295,1136.9L280.527,1136.9L369.231,1331.59L457.935,1136.9L469.167,1136.9L469.167,1340.81L462.831,1340.81Z" style="fill:rgb(116,185,163);fill-rule:nonzero;"/>
        </g>
        <path d="M589.69,1340.81L528.058,1237.99L480.25,1237.99L480.25,1340.81L473.914,1340.81L473.914,1136.9L530.362,1136.9C537.85,1136.9 545.434,1137.57 553.114,1138.92C560.794,1140.26 567.658,1142.81 573.706,1146.55C579.754,1150.29 584.698,1155.43 588.538,1161.96C592.378,1168.49 594.298,1176.93 594.298,1187.3C594.298,1196.9 592.474,1204.87 588.826,1211.2C585.178,1217.54 580.474,1222.68 574.714,1226.61C568.954,1230.55 562.57,1233.38 555.562,1235.11C548.554,1236.84 541.69,1237.7 534.97,1237.7L596.89,1340.81L589.69,1340.81ZM587.962,1187.3C587.962,1178.47 586.234,1171.12 582.778,1165.27C579.322,1159.41 574.762,1154.81 569.098,1151.44C563.434,1148.09 556.906,1145.73 549.514,1144.39C542.122,1143.05 534.586,1142.37 526.906,1142.37L480.25,1142.37L480.25,1232.52L530.074,1232.52C548.89,1232.52 563.242,1228.58 573.13,1220.71C583.018,1212.84 587.962,1201.7 587.962,1187.3Z" style="fill:rgb(116,185,163);fill-rule:nonzero;"/>
    </g>
    <g transform="matrix(4.77224,0,0,4.74359,-947.806,-4852.61)">
        <g transform="matrix(0.83,0,7.75082e-18,1,40.5905,0)">
            <path d="M462.831,1340.81L462.831,1144.1L461.679,1144.1L371.535,1340.81L366.351,1340.81L276.495,1144.1L275.631,1144.1L275.631,1340.81L269.295,1340.81L269.295,1136.9L280.527,1136.9L369.231,1331.59L457.935,1136.9L469.167,1136.9L469.167,1340.81L462.831,1340.81Z" style="fill:rgb(159,210,194);fill-rule:nonzero;"/>
        </g>
        <path d="M589.69,1340.81L528.058,1237.99L480.25,1237.99L480.25,1340.81L473.914,1340.81L473.914,1136.9L530.362,1136.9C537.85,1136.9 545.434,1137.57 553.114,1138.92C560.794,1140.26 567.658,1142.81 573.706,1146.55C579.754,1150.29 584.698,1155.43 588.538,1161.96C592.378,1168.49 594.298,1176.93 594.298,1187.3C594.298,1196.9 592.474,1204.87 588.826,1211.2C585.178,1217.54 580.474,1222.68 574.714,1226.61C568.954,1230.55 562.57,1233.38 555.562,1235.11C548.554,1236.84 541.69,1237.7 534.97,1237.7L596.89,1340.81L589.69,1340.81ZM587.962,1187.3C587.962,1178.47 586.234,1171.12 582.778,1165.27C579.322,1159.41 574.762,1154.81 569.098,1151.44C563.434,1148.09 556.906,1145.73 549.514,1144.39C542.122,1143.05 534.586,1142.37 526.906,1142.37L480.25,1142.37L480.25,1232.52L530.074,1232.52C548.89,1232.52 563.242,1228.58 573.13,1220.71C583.018,1212.84 587.962,1201.7 587.962,1187.3Z" style="fill:rgb(159,210,194);fill-rule:nonzero;"/>
    </g>
    <g transform="matrix(4.72902,0,0,4.74359,-969.391,-4852.61)">
        <g transform="matrix(0.83,0,7.75082e-18,1,40.5905,0)">
            <path d="M462.831,1340.81L462.831,1144.1L461.679,1144.1L371.535,1340.81L366.351,1340.81L276.495,1144.1L275.631,1144.1L275.631,1340.81L269.295,1340.81L269.295,1136.9L280.527,1136.9L369.231,1331.59L457.935,1136.9L469.167,1136.9L469.167,1340.81L462.831,1340.81Z" style="fill:rgb(200,230,220);fill-rule:nonzero;"/>
        </g>
        <path d="M589.69,1340.81L528.058,1237.99L480.25,1237.99L480.25,1340.81L473.914,1340.81L473.914,1136.9L530.362,1136.9C537.85,1136.9 545.434,1137.57 553.114,1138.92C560.794,1140.26 567.658,1142.81 573.706,1146.55C579.754,1150.29 584.698,1155.43 588.538,1161.96C592.378,1168.49 594.298,1176.93 594.298,1187.3C594.298,1196.9 592.474,1204.87 588.826,1211.2C585.178,1217.54 580.474,1222.68 574.714,1226.61C568.954,1230.55 562.57,1233.38 555.562,1235.11C548.554,1236.84 541.69,1237.7 534.97,1237.7L596.89,1340.81L589.69,1340.81ZM587.962,1187.3C587.962,1178.47 586.234,1171.12 582.778,1165.27C579.322,1159.41 574.762,1154.81 569.098,1151.44C563.434,1148.09 556.906,1145.73 549.514,1144.39C542.122,1143.05 534.586,1142.37 526.906,1142.37L480.25,1142.37L480.25,1232.52L530.074,1232.52C548.89,1232.52 563.242,1228.58 573.13,1220.71C583.018,1212.84 587.962,1201.7 587.962,1187.3Z" style="fill:rgb(200,230,220);fill-rule:nonzero;"/>
    </g>
    <g transform="matrix(4.74359,0,0,4.74359,-1018.11,-4852.61)">
        <g transform="matrix(0.83,0,7.75082e-18,1,40.5905,0)">
            <path d="M462.831,1340.81L462.831,1144.1L461.679,1144.1L371.535,1340.81L366.351,1340.81L276.495,1144.1L275.631,1144.1L275.631,1340.81L269.295,1340.81L269.295,1136.9L280.527,1136.9L369.231,1331.59L457.935,1136.9L469.167,1136.9L469.167,1340.81L462.831,1340.81Z" style="fill:rgb(55,33,10);fill-rule:nonzero;"/>
        </g>
        <path d="M589.69,1340.81L528.058,1237.99L480.25,1237.99L480.25,1340.81L473.914,1340.81L473.914,1136.9L530.362,1136.9C537.85,1136.9 545.434,1137.57 553.114,1138.92C560.794,1140.26 567.658,1142.81 573.706,1146.55C579.754,1150.29 584.698,1155.43 588.538,1161.96C592.378,1168.49 594.298,1176.93 594.298,1187.3C594.298,1196.9 592.474,1204.87 588.826,1211.2C585.178,1217.54 580.474,1222.68 574.714,1226.61C568.954,1230.55 562.57,1233.38 555.562,1235.11C548.554,1236.84 541.69,1237.7 534.97,1237.7L596.89,1340.81L589.69,1340.81ZM587.962,1187.3C587.962,1178.47 586.234,1171.12 582.778,1165.27C579.322,1159.41 574.762,1154.81 569.098,1151.44C563.434,1148.09 556.906,1145.73 549.514,1144.39C542.122,1143.05 534.586,1142.37 526.906,1142.37L480.25,1142.37L480.25,1232.52L530.074,1232.52C548.89,1232.52 563.242,1228.58 573.13,1220.71C583.018,1212.84 587.962,1201.7 587.962,1187.3Z" style="fill:rgb(55,33,10);fill-rule:nonzero;"/>
    </g>
</svg>
